<svg xmlns="http://www.w3.org/2000/svg" xmlns:xlink="http://www.w3.org/1999/xlink" width="2000" zoomAndPan="magnify" viewBox="0 0 1500 1499.999933" height="2000" preserveAspectRatio="xMidYMid meet" version="1.0"><defs><g/><clipPath id="b8f8849a77"><path d="M 36.15625 484.929688 L 510.011719 484.929688 L 510.011719 958.785156 L 36.15625 958.785156 Z M 36.15625 484.929688 " clip-rule="nonzero"/></clipPath><clipPath id="4face93b14"><path d="M 106.65625 484.929688 L 439.511719 484.929688 C 458.207031 484.929688 476.140625 492.359375 489.363281 505.578125 C 502.582031 518.800781 510.011719 536.734375 510.011719 555.429688 L 510.011719 888.285156 C 510.011719 906.984375 502.582031 924.914062 489.363281 938.136719 C 476.140625 951.359375 458.207031 958.785156 439.511719 958.785156 L 106.65625 958.785156 C 87.957031 958.785156 70.027344 951.359375 56.804688 938.136719 C 43.582031 924.914062 36.15625 906.984375 36.15625 888.285156 L 36.15625 555.429688 C 36.15625 536.734375 43.582031 518.800781 56.804688 505.578125 C 70.027344 492.359375 87.957031 484.929688 106.65625 484.929688 Z M 106.65625 484.929688 " clip-rule="nonzero"/></clipPath><clipPath id="1782b34cb1"><path d="M 0.15625 0.929688 L 474.011719 0.929688 L 474.011719 474.785156 L 0.15625 474.785156 Z M 0.15625 0.929688 " clip-rule="nonzero"/></clipPath><clipPath id="63393372a7"><path d="M 70.65625 0.929688 L 403.511719 0.929688 C 422.207031 0.929688 440.140625 8.359375 453.363281 21.578125 C 466.582031 34.800781 474.011719 52.734375 474.011719 71.429688 L 474.011719 404.285156 C 474.011719 422.984375 466.582031 440.914062 453.363281 454.136719 C 440.140625 467.359375 422.207031 474.785156 403.511719 474.785156 L 70.65625 474.785156 C 51.957031 474.785156 34.027344 467.359375 20.804688 454.136719 C 7.582031 440.914062 0.15625 422.984375 0.15625 404.285156 L 0.15625 71.429688 C 0.15625 52.734375 7.582031 34.800781 20.804688 21.578125 C 34.027344 8.359375 51.957031 0.929688 70.65625 0.929688 Z M 70.65625 0.929688 " clip-rule="nonzero"/></clipPath><clipPath id="89473e50c9"><rect x="0" width="475" y="0" height="475"/></clipPath><clipPath id="fcdfe0a2d1"><rect x="0" width="928" y="0" height="267"/></clipPath><clipPath id="74c5530046"><rect x="0" width="928" y="0" height="428"/></clipPath><clipPath id="52fa7c0bc9"><path d="M 286.550781 491.246094 L 405.675781 491.246094 L 405.675781 952.472656 L 286.550781 952.472656 Z M 286.550781 491.246094 " clip-rule="nonzero"/></clipPath><clipPath id="9781f7610a"><path d="M 0.550781 0.246094 L 119.675781 0.246094 L 119.675781 461.472656 L 0.550781 461.472656 Z M 0.550781 0.246094 " clip-rule="nonzero"/></clipPath><clipPath id="be1636c4ae"><rect x="0" width="120" y="0" height="462"/></clipPath><clipPath id="d30e8c93bf"><path d="M 140.492188 491.246094 L 259.617188 491.246094 L 259.617188 952.472656 L 140.492188 952.472656 Z M 140.492188 491.246094 " clip-rule="nonzero"/></clipPath><clipPath id="e82d349000"><path d="M 0.492188 0.246094 L 119.617188 0.246094 L 119.617188 461.472656 L 0.492188 461.472656 Z M 0.492188 0.246094 " clip-rule="nonzero"/></clipPath><clipPath id="d2c90a3ee4"><rect x="0" width="120" y="0" height="462"/></clipPath><clipPath id="f1a3ed6469"><path d="M 106.382812 560.460938 L 440 560.460938 L 440 886.710938 L 106.382812 886.710938 Z M 106.382812 560.460938 " clip-rule="nonzero"/></clipPath></defs><g clip-path="url(#b8f8849a77)"><g clip-path="url(#4face93b14)"><g transform="matrix(1, 0, 0, 1, 36, 484)"><g clip-path="url(#89473e50c9)"><g clip-path="url(#1782b34cb1)"><g clip-path="url(#63393372a7)"><path fill="#000000" d="M 0.15625 0.929688 L 474.011719 0.929688 L 474.011719 474.785156 L 0.15625 474.785156 Z M 0.15625 0.929688 " fill-opacity="1" fill-rule="nonzero"/></g></g></g></g></g></g><g transform="matrix(1, 0, 0, 1, 532, 455)"><g clip-path="url(#fcdfe0a2d1)"><g fill="#9d0dea" fill-opacity="1"><g transform="translate(0.695979, 211.308791)"><g><path d="M 22.96875 0.65625 L 19 -1.984375 L 16.78125 -8.828125 L 16.34375 -20.09375 L 16.78125 -24.515625 L 16.34375 -29.15625 L 16.5625 -32.6875 L 16.125 -41.734375 L 16.78125 -50.796875 L 16.34375 -54.765625 L 16.5625 -63.375 L 15.90625 -68.234375 L 16.78125 -77.296875 L 16.125 -81.046875 L 16.5625 -108.21875 L 15.90625 -112.625 L 16.5625 -117.046875 L 16.125 -143.984375 L 16.5625 -147.75 L 18.546875 -151.9375 L 22.96875 -154.8125 L 27.828125 -155.03125 L 32.25 -154.59375 L 36.4375 -154.8125 L 47.484375 -153.703125 L 53.890625 -151.71875 L 56.75 -148.1875 L 56.3125 -139.125 L 56.53125 -132.28125 L 56.09375 -126.984375 L 56.53125 -123.015625 L 56.75 -107.109375 L 56.53125 -102.90625 L 57.640625 -98.28125 L 61.390625 -95.625 L 66.25 -95.625 L 70.671875 -96.953125 L 75.53125 -97.609375 L 79.5 -99.375 L 87.234375 -104.90625 L 92.3125 -111.96875 L 93.640625 -116.609375 L 94.96875 -119.921875 L 96.734375 -134.265625 L 96.515625 -138.6875 L 97.171875 -142.890625 L 97.171875 -147.75 L 98.9375 -151.9375 L 103.578125 -154.59375 L 110.203125 -154.8125 L 116.828125 -153.921875 L 124.109375 -154.8125 L 130.734375 -154.15625 L 135.59375 -152.15625 L 137.578125 -147.75 L 136.921875 -134.046875 L 137.359375 -129.640625 L 135.8125 -115.5 L 132.0625 -102.6875 L 130.515625 -98.71875 L 127.203125 -92.96875 L 120.140625 -83.921875 L 113.296875 -78.171875 L 110.421875 -73.546875 L 111.3125 -68.46875 L 118.59375 -56.75 L 120.359375 -53 L 122.796875 -48.8125 L 125.21875 -45.71875 L 132.0625 -34.453125 L 134.9375 -30.921875 L 148.625 -5.96875 L 147.53125 -1.109375 L 142.890625 0 L 138.46875 -0.21875 L 134.5 0.21875 L 112.1875 0.4375 L 107.109375 -1.765625 L 102.90625 -5.96875 L 100.703125 -8.828125 L 98.5 -13.03125 L 95.84375 -16.34375 L 91.65625 -24.515625 L 89.65625 -27.609375 L 88.109375 -31.359375 L 79.0625 -46.15625 L 77.515625 -50.796875 L 75.3125 -54.328125 L 70.234375 -58.078125 L 64.265625 -58.53125 L 58.75 -56.09375 L 56.3125 -52.34375 L 56.984375 -29.15625 L 56.3125 -24.515625 L 56.75 -6.84375 L 54.328125 -1.984375 L 49.90625 -0.21875 L 42.84375 0.4375 L 36.65625 0 Z M 22.96875 0.65625 "/></g></g></g><g fill="#9d0dea" fill-opacity="1"><g transform="translate(144.227693, 211.308791)"><g><path d="M 73.984375 0.890625 L 69.5625 -0.21875 L 58.75 -0.21875 L 52.125 0.65625 L 43.28125 -0.21875 L 38.875 0.21875 L 32.015625 0.4375 L 25.625 -0.4375 L 21.421875 0 L 17.21875 0 L 12.8125 -1.984375 L 10.59375 -7.953125 L 11.265625 -28.265625 L 13.6875 -32.25 L 28.265625 -36.65625 L 30.703125 -43.28125 L 30.03125 -111.078125 L 28.046875 -117.046875 L 23.84375 -119.703125 L 19.4375 -119.703125 L 14.578125 -122.125 L 12.140625 -126.546875 L 12.59375 -130.734375 L 11.921875 -147.078125 L 14.140625 -152.375 L 18.546875 -154.59375 L 23.625 -154.59375 L 27.828125 -153.921875 L 45.9375 -153.921875 L 50.359375 -154.8125 L 54.328125 -154.375 L 81.046875 -154.375 L 85.03125 -151.9375 L 87.671875 -147.75 L 87.453125 -125.875 L 85.25 -122.34375 L 80.609375 -120.578125 L 76.1875 -119.921875 L 71.328125 -117.9375 L 69.78125 -112.84375 L 68.90625 -90.546875 L 69.78125 -74.640625 L 69.34375 -69.78125 L 69.5625 -45.5 L 68.90625 -41.296875 L 71.546875 -36.21875 L 76.859375 -34.453125 L 81.484375 -34.453125 L 86.34375 -32.015625 L 89 -27.828125 L 89 -5.96875 L 86.796875 -1.765625 L 82.8125 0.4375 Z M 73.984375 0.890625 "/></g></g></g><g fill="#9d0dea" fill-opacity="1"><g transform="translate(234.983495, 211.308791)"><g><path d="M 57.640625 0.4375 L 50.796875 0.21875 L 44.390625 -1.984375 L 41.515625 -6.84375 L 41.953125 -11.046875 L 42.1875 -23.84375 L 41.734375 -28.484375 L 41.953125 -46.375 L 42.40625 -50.796875 L 41.734375 -83.703125 L 42.1875 -89.890625 L 41.953125 -94.296875 L 42.1875 -99.15625 L 41.734375 -105.34375 L 42.1875 -112.40625 L 39.75 -116.828125 L 35.5625 -119.03125 L 14.578125 -119.46875 L 10.15625 -119.03125 L 6.1875 -121.25 L 4.203125 -125.21875 L 3.75 -132.0625 L 4.203125 -143.109375 L 3.96875 -147.53125 L 6.625 -152.609375 L 10.828125 -154.8125 L 26.28125 -153.921875 L 33.125 -154.59375 L 46.15625 -153.921875 L 50.125 -154.8125 L 54.984375 -154.375 L 59.625 -155.03125 L 63.828125 -154.8125 L 68.234375 -153.921875 L 86.125 -154.8125 L 90.328125 -154.375 L 94.96875 -155.03125 L 99.15625 -154.59375 L 112.84375 -154.59375 L 117.046875 -151.71875 L 119.46875 -147.296875 L 119.25 -126.328125 L 116.609375 -121.46875 L 112.84375 -119.03125 L 108.875 -119.25 L 104.234375 -118.59375 L 96.0625 -119.703125 L 87.453125 -119.25 L 83.265625 -116.609375 L 81.484375 -109.984375 L 80.828125 -90.765625 L 81.484375 -86.125 L 81.046875 -50.578125 L 81.71875 -45.71875 L 81.265625 -41.734375 L 81.484375 -32.90625 L 81.046875 -28.265625 L 81.71875 -19.875 L 81.046875 -8.390625 L 78.84375 -2.203125 L 72.4375 0 Z M 57.640625 0.4375 "/></g></g></g><g fill="#9d0dea" fill-opacity="1"><g transform="translate(341.858578, 211.308791)"><g><path d="M 76.859375 1.765625 L 72.65625 1.546875 L 68.6875 0.65625 L 64.265625 -0.890625 L 60.296875 -1.765625 L 50.359375 -5.96875 L 40.859375 -11.046875 L 30.921875 -19.65625 L 21.859375 -29.375 L 12.375 -48.578125 L 9.28125 -61.171875 L 7.953125 -77.296875 L 10.15625 -96.28125 L 12.375 -105.34375 L 17.890625 -117.703125 L 22.078125 -124.109375 L 28.046875 -131.625 L 37.546875 -140.234375 L 43.953125 -145.09375 L 60.296875 -152.828125 L 81.71875 -157.015625 L 95.40625 -156.796875 L 99.828125 -156.140625 L 104.015625 -155.921875 L 125.21875 -148.84375 L 140.234375 -139.359375 L 146.421875 -132.953125 L 148.84375 -128.75 L 151.9375 -125 L 153.921875 -121.46875 L 156.359375 -117.9375 L 157.6875 -113.296875 L 159.234375 -109.3125 L 160.546875 -104.453125 L 159 -100.046875 L 155.25 -98.28125 L 148.625 -97.609375 L 142.4375 -98.28125 L 138.03125 -98.046875 L 133.390625 -98.28125 L 129.421875 -97.828125 L 124.328125 -100.265625 L 120.140625 -104.453125 L 117.703125 -107.765625 L 111.3125 -114.171875 L 108.21875 -116.609375 L 104.234375 -118.15625 L 97.390625 -120.140625 L 87.890625 -120.578125 L 73.09375 -118.59375 L 67.140625 -115.28125 L 61.84375 -111.078125 L 56.53125 -104.90625 L 54.328125 -100.703125 L 51.015625 -92.75 L 49.46875 -83.921875 L 49.46875 -70.453125 L 50.125 -65.59375 L 51.234375 -61.609375 L 52.78125 -58.53125 L 54.328125 -54.109375 L 59.1875 -46.375 L 65.59375 -40.640625 L 73.3125 -36.65625 L 81.265625 -33.796875 L 87.671875 -33.125 L 99.375 -33.796875 L 107.109375 -37.984375 L 110.421875 -39.3125 L 113.953125 -42.40625 L 119.03125 -48.140625 L 121.25 -52.34375 L 124.78125 -55.875 L 129.859375 -58.53125 L 134.265625 -58.296875 L 138.6875 -58.53125 L 143.109375 -57.859375 L 155.46875 -58.75 L 159.890625 -55.875 L 161.21875 -51.890625 L 155.46875 -35.109375 L 150.84375 -27.15625 L 145.75 -20.53125 L 139.578125 -14.359375 L 128.75 -6.625 L 125 -4.859375 L 120.359375 -3.3125 L 116.390625 -1.109375 L 103.359375 1.546875 L 87.890625 2.65625 Z M 76.859375 1.765625 "/></g></g></g><g fill="#9d0dea" fill-opacity="1"><g transform="translate(500.847706, 211.308791)"><g><path d="M 16.125 -6.1875 L 16.78125 -24.296875 L 16.125 -28.265625 L 16.125 -94.296875 L 16.5625 -98.71875 L 16.34375 -104.015625 L 16.78125 -112.40625 L 15.90625 -121.46875 L 16.34375 -125.875 L 15.90625 -143.109375 L 16.34375 -147.96875 L 18.546875 -152.375 L 23.40625 -154.59375 L 45.265625 -154.15625 L 50.125 -154.59375 L 54.765625 -152.15625 L 56.75 -147.96875 L 57.203125 -139.796875 L 56.75 -134.9375 L 56.53125 -117.703125 L 56.75 -113.734375 L 56.75 -109.09375 L 56.984375 -104.234375 L 59.1875 -100.046875 L 63.375 -98.046875 L 76.40625 -97.828125 L 80.390625 -98.28125 L 85.03125 -97.828125 L 93.640625 -98.71875 L 97.828125 -98.046875 L 102.25 -100.484375 L 104.6875 -104.90625 L 104.90625 -122.125 L 104.234375 -126.328125 L 104.6875 -135.375 L 104.234375 -139.125 L 104.453125 -147.53125 L 106.671875 -152.828125 L 113.078125 -154.375 L 138.46875 -154.15625 L 142.890625 -152.375 L 144.875 -147.75 L 144.65625 -36.875 L 145.3125 -33.34375 L 144.65625 -26.28125 L 145.09375 -6.1875 L 142.4375 -2.421875 L 138.25 0.4375 L 129.1875 -0.21875 L 124.78125 0.21875 L 113.296875 0.21875 L 106.890625 -2.65625 L 104.453125 -6.1875 L 104.234375 -54.984375 L 102.03125 -59.1875 L 97.828125 -61.609375 L 93.859375 -61.609375 L 89.21875 -62.28125 L 63.15625 -62.0625 L 58.53125 -59.1875 L 56.53125 -54.546875 L 56.53125 -15.453125 L 56.984375 -10.59375 L 56.53125 -6.40625 L 54.765625 -2.203125 L 50.125 0.4375 L 40.859375 0.21875 L 36.21875 0.65625 L 27.390625 0.21875 L 22.96875 0.4375 L 18.765625 -1.984375 Z M 16.125 -6.1875 "/></g></g></g><g fill="#9d0dea" fill-opacity="1"><g transform="translate(652.991417, 211.308791)"><g><path d="M 76.859375 0.65625 L 72.4375 0.21875 L 68.015625 0.65625 L 62.9375 0.4375 L 58.75 -0.4375 L 49.6875 0.21875 L 45.71875 0 L 40.859375 0.4375 L 24.953125 0.21875 L 18.328125 -2.65625 L 16.5625 -8.609375 L 16.125 -13.46875 L 16.78125 -28.703125 L 16.125 -33.125 L 16.5625 -37.328125 L 16.78125 -73.09375 L 16.125 -77.078125 L 16.34375 -95.1875 L 16.78125 -99.375 L 16.125 -104.015625 L 16.5625 -125.65625 L 15.90625 -130.515625 L 16.5625 -139.578125 L 16.125 -147.96875 L 18.546875 -152.609375 L 23.1875 -154.375 L 27.609375 -154.15625 L 32.015625 -154.59375 L 36 -154.15625 L 40.1875 -155.03125 L 44.609375 -154.375 L 62.71875 -154.8125 L 67.140625 -154.375 L 70.890625 -154.59375 L 75.3125 -154.15625 L 80.171875 -154.59375 L 98.046875 -154.8125 L 102.03125 -153.921875 L 106.671875 -153.921875 L 111.078125 -152.15625 L 113.078125 -147.96875 L 113.515625 -134.71875 L 113.296875 -130.296875 L 113.515625 -125.875 L 111.3125 -121.90625 L 106.671875 -119.25 L 102.46875 -119.03125 L 70.890625 -119.46875 L 66.6875 -118.59375 L 62.5 -118.8125 L 57.640625 -117.046875 L 55.65625 -112.84375 L 55.65625 -106 L 57.421875 -99.15625 L 62.0625 -97.171875 L 74.859375 -97.609375 L 84.140625 -96.953125 L 88.78125 -97.390625 L 101.8125 -97.390625 L 106.890625 -94.515625 L 109.09375 -88.34375 L 108.4375 -68.46875 L 106.890625 -64.046875 L 102.46875 -62.28125 L 97.390625 -62.5 L 92.96875 -62.0625 L 83.921875 -62.28125 L 75.53125 -61.84375 L 68.46875 -62.5 L 61.84375 -62.28125 L 57.859375 -59.84375 L 55.875 -55.21875 L 55.875 -41.296875 L 57.640625 -37.328125 L 62.28125 -35.109375 L 67.140625 -35.5625 L 71.328125 -34.890625 L 76.1875 -35.109375 L 80.609375 -34.671875 L 87.890625 -35.5625 L 99.15625 -35.328125 L 103.359375 -34.671875 L 108.4375 -35.109375 L 113.078125 -33.125 L 115.5 -28.703125 L 115.5 -6.40625 L 113.078125 -1.765625 L 108.4375 0.21875 Z M 76.859375 0.65625 "/></g></g></g><g fill="#9d0dea" fill-opacity="1"><g transform="translate(770.024738, 211.308791)"><g><path d="M 130.296875 -3.75 L 126.984375 -6.625 L 121.25 -13.03125 L 87.015625 -47.046875 L 83.265625 -49.46875 L 80.390625 -52.78125 L 64.703125 -67.796875 L 61.84375 -71.546875 L 58.96875 -72.65625 L 57.421875 -68.90625 L 56.984375 -64.484375 L 56.75 -8.609375 L 54.546875 -1.765625 L 50.125 0.4375 L 45.5 0.65625 L 36.875 0 L 32.015625 0.4375 L 22.96875 0 L 18.328125 -1.546875 L 16.34375 -5.734375 L 15.90625 -24.296875 L 16.34375 -28.484375 L 15.90625 -64.703125 L 16.5625 -68.46875 L 16.125 -77.515625 L 16.34375 -81.265625 L 16.34375 -148.1875 L 18.328125 -152.375 L 23.40625 -154.59375 L 30.03125 -153.046875 L 35.109375 -150.390625 L 38.421875 -147.75 L 81.9375 -103.796875 L 88.109375 -98.9375 L 103.796875 -83.265625 L 107.109375 -81.71875 L 108.4375 -85.46875 L 108.875 -125 L 108.4375 -129.859375 L 109.09375 -139.125 L 108.4375 -142.671875 L 108.65625 -147.296875 L 111.078125 -151.9375 L 115.28125 -154.375 L 142.671875 -154.59375 L 147.078125 -152.15625 L 149.296875 -147.75 L 149.953125 -117.046875 L 149.296875 -111.75 L 149.296875 -89.890625 L 149.953125 -86.125 L 149.515625 -5.515625 L 147.296875 -1.109375 L 142.4375 0.4375 L 136.265625 -0.21875 Z M 130.296875 -3.75 "/></g></g></g></g></g><g transform="matrix(1, 0, 0, 1, 527, 616)"><g clip-path="url(#74c5530046)"><g fill="#26ead3" fill-opacity="1"><g transform="translate(0.122781, 338.57472)"><g><path d="M 123.265625 3.546875 L 116.15625 1.421875 L 95.90625 -2.125 L 89.875 -3.90625 L 65.359375 -18.109375 L 53.640625 -26.28125 L 39.421875 -41.203125 L 31.265625 -53.28125 L 24.859375 -65.359375 L 14.921875 -98.75 L 13.140625 -123.609375 L 13.5 -134.984375 L 19.890625 -170.15625 L 33.03125 -196.796875 L 36.9375 -202.125 L 42.265625 -207.453125 L 46.890625 -213.125 L 62.515625 -226.984375 L 82.0625 -239.0625 L 109.40625 -249.015625 L 116.15625 -249.359375 L 122.1875 -251.5 L 129.296875 -251.84375 L 162.328125 -250.421875 L 179.03125 -245.8125 L 186.484375 -244.390625 L 211.359375 -231.25 L 216.6875 -226.984375 L 222.359375 -221.65625 L 230.1875 -215.265625 L 244.390625 -194.65625 L 247.59375 -188.265625 L 252.5625 -173.703125 L 250.421875 -167.65625 L 241.546875 -163.75 L 224.5 -164.828125 L 213.84375 -163.40625 L 202.828125 -163.75 L 194.296875 -166.25 L 186.84375 -172.28125 L 182.234375 -178.3125 L 177.96875 -182.9375 L 171.21875 -187.5625 L 164.46875 -190.390625 L 151.328125 -193.953125 L 129.65625 -193.234375 L 123.609375 -190.390625 L 116.859375 -189.6875 L 110.828125 -186.484375 L 98.390625 -177.609375 L 87.390625 -160.90625 L 81.703125 -148.125 L 79.21875 -134.265625 L 79.5625 -113.671875 L 81.34375 -102.296875 L 84.1875 -92 L 90.9375 -79.21875 L 94.84375 -74.234375 L 105.5 -64.296875 L 124.6875 -56.484375 L 142.796875 -54.34375 L 152.03125 -54.703125 L 165.890625 -57.90625 L 177.609375 -62.515625 L 182.578125 -66.421875 L 187.90625 -72.46875 L 191.46875 -78.5 L 190.390625 -84.546875 L 185.0625 -87.03125 L 178.671875 -88.09375 L 160.90625 -86.671875 L 150.609375 -87.390625 L 144.21875 -91.296875 L 141.015625 -96.96875 L 141.015625 -130.71875 L 144.21875 -137.46875 L 151.328125 -141.015625 L 164.828125 -142.09375 L 186.140625 -140.671875 L 234.09375 -141.734375 L 241.546875 -140.671875 L 249.015625 -140.3125 L 255.75 -136.765625 L 259.3125 -130.71875 L 260.015625 -117.21875 L 259.3125 -110.46875 L 259.3125 -103.375 L 257.890625 -96.96875 L 257.53125 -90.9375 L 254.6875 -77.4375 L 247.59375 -56.484375 L 243.328125 -51.5 L 240.125 -45.109375 L 236.578125 -39.078125 L 232.3125 -34.09375 L 226.984375 -29.84375 L 221.65625 -24.15625 L 210.640625 -15.625 L 185.421875 -2.84375 L 158.78125 3.546875 Z M 123.265625 3.546875 "/></g></g></g><g fill="#26ead3" fill-opacity="1"><g transform="translate(251.620233, 338.57472)"><g><path d="M 122.1875 4.625 L 110.828125 3.90625 L 103.71875 3.90625 L 89.875 1.0625 L 76.375 -4.96875 L 71.046875 -8.171875 L 63.9375 -11.359375 L 52.578125 -18.828125 L 47.25 -23.4375 L 42.984375 -28.421875 L 34.8125 -41.203125 L 29.125 -53.28125 L 25.578125 -67.84375 L 23.4375 -96.265625 L 24.515625 -153.453125 L 23.796875 -160.203125 L 24.859375 -167.3125 L 23.796875 -217.03125 L 24.515625 -222.71875 L 24.515625 -231.25 L 23.796875 -238.359375 L 28.421875 -245.09375 L 35.875 -247.9375 L 43.34375 -249.015625 L 58.609375 -247.59375 L 65.71875 -248.65625 L 72.46875 -248.65625 L 79.921875 -245.453125 L 84.1875 -237.640625 L 84.890625 -227.34375 L 84.1875 -215.96875 L 84.890625 -210.640625 L 83.828125 -96.265625 L 85.96875 -75.65625 L 88.09375 -68.90625 L 92.359375 -63.234375 L 98.046875 -58.96875 L 104.078125 -55.421875 L 112.25 -53.640625 L 133.5625 -53.640625 L 146 -58.25 L 152.03125 -62.515625 L 155.9375 -69.625 L 158.078125 -74.953125 L 160.5625 -96.96875 L 159.84375 -236.9375 L 163.75 -244.75 L 171.21875 -248.296875 L 186.140625 -247.234375 L 208.515625 -247.9375 L 216.328125 -245.453125 L 220.953125 -238 L 219.875 -230.890625 L 219.875 -201.40625 L 220.59375 -195.71875 L 219.875 -187.90625 L 220.59375 -181.15625 L 220.59375 -85.25 L 218.8125 -68.203125 L 215.625 -53.28125 L 212.0625 -47.25 L 209.9375 -40.140625 L 201.765625 -27.703125 L 191.8125 -17.765625 L 180.09375 -9.953125 L 167.3125 -3.203125 L 139.59375 3.90625 L 132.859375 3.546875 Z M 122.1875 4.625 "/></g></g></g><g fill="#26ead3" fill-opacity="1"><g transform="translate(476.120778, 338.57472)"><g><path d="M 26.640625 -14.5625 L 26.640625 -67.140625 L 25.9375 -74.234375 L 26.28125 -103.015625 L 27 -109.765625 L 26.28125 -116.515625 L 26.28125 -123.609375 L 25.9375 -131.4375 L 27 -145.640625 L 26.28125 -152.75 L 25.9375 -234.09375 L 30.1875 -244.03125 L 36.59375 -247.59375 L 57.546875 -249.359375 L 65.359375 -249.015625 L 72.46875 -247.59375 L 79.5625 -247.59375 L 85.96875 -249.359375 L 93.0625 -249.359375 L 100.171875 -247.9375 L 121.484375 -247.9375 L 131.78125 -248.65625 L 143.15625 -248.296875 L 163.40625 -243.6875 L 176.90625 -239.0625 L 189.328125 -232.3125 L 209.578125 -211 L 213.484375 -205.3125 L 216.328125 -199.28125 L 222.71875 -179.03125 L 223.78125 -171.921875 L 224.5 -149.546875 L 219.875 -128.9375 L 206.03125 -104.078125 L 201.046875 -99.8125 L 196.078125 -94.484375 L 192.890625 -86.671875 L 193.234375 -78.140625 L 197.5 -72.8125 L 208.875 -54.34375 L 212.0625 -47.953125 L 224.140625 -29.84375 L 226.984375 -23.09375 L 231.25 -18.109375 L 235.15625 -10.296875 L 233.015625 -2.484375 L 226.28125 0.703125 L 214.546875 1.0625 L 207.796875 0.359375 L 179.734375 0.703125 L 167.65625 -2.484375 L 159.84375 -8.875 L 155.9375 -14.921875 L 153.09375 -22.03125 L 149.1875 -27.359375 L 142.4375 -40.140625 L 134.984375 -50.796875 L 132.140625 -57.1875 L 127.875 -64.296875 L 120.78125 -70.328125 L 100.171875 -73.171875 L 93.421875 -69.265625 L 90.21875 -62.15625 L 89.515625 -39.421875 L 90.578125 -31.96875 L 89.875 -25.578125 L 89.875 -13.5 L 86.671875 -3.203125 L 75.3125 0.359375 L 64.65625 0.359375 L 58.96875 1.0625 L 47.59375 0 L 40.5 1.0625 L 30.1875 -3.546875 Z M 100.171875 -130.015625 L 107.984375 -130.71875 L 125.03125 -130.015625 L 131.78125 -130.359375 L 142.09375 -132.859375 L 148.484375 -135.6875 L 152.390625 -138.890625 L 156.296875 -144.21875 L 159.5 -151.328125 L 160.5625 -161.984375 L 159.140625 -171.21875 L 157 -176.90625 L 148.125 -187.90625 L 141.375 -189.6875 L 132.140625 -190.390625 L 122.1875 -192.53125 L 107.984375 -191.109375 L 100.875 -191.46875 L 93.421875 -188.625 L 90.21875 -181.875 L 89.515625 -166.953125 L 90.21875 -160.90625 L 90.21875 -139.59375 L 93.0625 -133.921875 Z M 100.171875 -130.015625 "/></g></g></g><g fill="#26ead3" fill-opacity="1"><g transform="translate(702.042193, 338.57472)"><g><path d="M 122.1875 4.625 L 110.828125 3.90625 L 103.71875 3.90625 L 89.875 1.0625 L 76.375 -4.96875 L 71.046875 -8.171875 L 63.9375 -11.359375 L 52.578125 -18.828125 L 47.25 -23.4375 L 42.984375 -28.421875 L 34.8125 -41.203125 L 29.125 -53.28125 L 25.578125 -67.84375 L 23.4375 -96.265625 L 24.515625 -153.453125 L 23.796875 -160.203125 L 24.859375 -167.3125 L 23.796875 -217.03125 L 24.515625 -222.71875 L 24.515625 -231.25 L 23.796875 -238.359375 L 28.421875 -245.09375 L 35.875 -247.9375 L 43.34375 -249.015625 L 58.609375 -247.59375 L 65.71875 -248.65625 L 72.46875 -248.65625 L 79.921875 -245.453125 L 84.1875 -237.640625 L 84.890625 -227.34375 L 84.1875 -215.96875 L 84.890625 -210.640625 L 83.828125 -96.265625 L 85.96875 -75.65625 L 88.09375 -68.90625 L 92.359375 -63.234375 L 98.046875 -58.96875 L 104.078125 -55.421875 L 112.25 -53.640625 L 133.5625 -53.640625 L 146 -58.25 L 152.03125 -62.515625 L 155.9375 -69.625 L 158.078125 -74.953125 L 160.5625 -96.96875 L 159.84375 -236.9375 L 163.75 -244.75 L 171.21875 -248.296875 L 186.140625 -247.234375 L 208.515625 -247.9375 L 216.328125 -245.453125 L 220.953125 -238 L 219.875 -230.890625 L 219.875 -201.40625 L 220.59375 -195.71875 L 219.875 -187.90625 L 220.59375 -181.15625 L 220.59375 -85.25 L 218.8125 -68.203125 L 215.625 -53.28125 L 212.0625 -47.25 L 209.9375 -40.140625 L 201.765625 -27.703125 L 191.8125 -17.765625 L 180.09375 -9.953125 L 167.3125 -3.203125 L 139.59375 3.90625 L 132.859375 3.546875 Z M 122.1875 4.625 "/></g></g></g></g></g><g clip-path="url(#52fa7c0bc9)"><g transform="matrix(1, 0, 0, 1, 286, 491)"><g clip-path="url(#be1636c4ae)"><g clip-path="url(#9781f7610a)"><path fill="#26ead3" d="M 0.550781 0.246094 L 119.675781 0.246094 L 119.675781 461.390625 L 0.550781 461.390625 Z M 0.550781 0.246094 " fill-opacity="1" fill-rule="nonzero"/></g></g></g></g><g clip-path="url(#d30e8c93bf)"><g transform="matrix(1, 0, 0, 1, 140, 491)"><g clip-path="url(#d2c90a3ee4)"><g clip-path="url(#e82d349000)"><path fill="#9d0dea" d="M 0.492188 0.246094 L 119.617188 0.246094 L 119.617188 461.390625 L 0.492188 461.390625 Z M 0.492188 0.246094 " fill-opacity="1" fill-rule="nonzero"/></g></g></g></g><g clip-path="url(#f1a3ed6469)"><path fill="#ffffff" d="M 273.078125 560.597656 C 181.015625 560.597656 106.382812 633.574219 106.382812 723.601562 C 106.382812 813.625 181.015625 886.605469 273.078125 886.605469 C 365.140625 886.605469 439.769531 813.625 439.769531 723.601562 C 439.769531 633.574219 365.140625 560.597656 273.078125 560.597656 Z M 273.21875 573.234375 C 285.183594 573.234375 294.882812 577.039062 294.882812 581.730469 C 294.882812 586.417969 285.183594 590.222656 273.21875 590.222656 C 261.25 590.222656 251.550781 586.417969 251.550781 581.730469 C 251.550781 577.039062 261.25 573.234375 273.21875 573.234375 Z M 142.59375 705.953125 C 142.066406 719.457031 136.960938 730.21875 131.191406 729.996094 C 125.417969 729.769531 121.167969 718.640625 121.695312 705.136719 C 122.222656 691.632812 127.328125 680.867188 133.097656 681.089844 C 138.871094 681.316406 143.121094 692.445312 142.59375 705.953125 Z M 184.976562 838.828125 C 181.707031 842.402344 171.355469 838.257812 161.847656 829.570312 C 152.339844 820.882812 147.28125 810.941406 150.546875 807.367188 C 153.8125 803.792969 164.167969 807.9375 173.675781 816.625 C 183.183594 825.3125 188.242188 835.253906 184.976562 838.828125 Z M 179.265625 620.777344 C 170.253906 629.976562 160.144531 634.6875 156.6875 631.296875 C 153.226562 627.910156 157.730469 617.707031 166.742188 608.503906 C 175.753906 599.304688 185.863281 594.59375 189.320312 597.984375 C 192.78125 601.371094 188.28125 611.578125 179.265625 620.777344 Z M 217.417969 770.882812 C 205.371094 770.882812 195.609375 761.121094 195.609375 749.078125 C 195.609375 737.035156 205.371094 727.269531 217.417969 727.269531 C 229.460938 727.269531 239.222656 737.035156 239.222656 749.078125 C 239.222656 761.121094 229.460938 770.882812 217.417969 770.882812 Z M 254.21875 671.113281 C 252.523438 667.816406 251.550781 664.089844 251.550781 660.125 C 251.550781 646.804688 262.351562 636.003906 275.675781 636.003906 C 289 636.003906 299.800781 646.804688 299.800781 660.125 C 299.800781 667.703125 296.300781 674.453125 290.839844 678.875 C 290.839844 678.878906 290.839844 678.882812 290.839844 678.886719 L 290.59375 679.085938 C 286.488281 682.320312 281.308594 684.25 275.675781 684.25 C 266.332031 684.25 258.230469 678.9375 254.222656 671.171875 L 254.25 671.121094 C 254.242188 671.117188 254.230469 671.113281 254.21875 671.113281 Z M 278.539062 856.445312 C 265.699219 856.160156 255.390625 851.261719 255.515625 845.496094 C 255.640625 839.730469 266.15625 835.289062 279 835.570312 C 291.84375 835.851562 302.152344 840.753906 302.023438 846.519531 C 301.898438 852.285156 291.382812 856.726562 278.539062 856.445312 Z M 339.199219 770.765625 L 339.199219 770.777344 C 338.5 770.847656 337.792969 770.882812 337.074219 770.882812 C 326.289062 770.882812 317.234375 762.746094 314.742188 751.761719 L 315.339844 751.621094 L 314.769531 751.753906 C 314.324219 749.796875 314.0625 747.753906 314.0625 745.644531 C 314.0625 731.703125 324.363281 720.402344 337.074219 720.402344 C 349.785156 720.402344 360.089844 731.703125 360.089844 745.644531 C 360.089844 758.796875 350.914062 769.589844 339.199219 770.765625 Z M 347.59375 595.398438 C 349.78125 592.316406 359.972656 595.800781 370.359375 603.171875 C 380.742188 610.546875 387.390625 619.019531 385.203125 622.097656 C 383.015625 625.179688 372.828125 621.695312 362.441406 614.324219 C 352.054688 606.949219 345.410156 598.476562 347.59375 595.398438 Z M 386.695312 824.667969 C 386.320312 825.070312 385.949219 825.453125 385.574219 825.839844 C 385.574219 825.832031 385.574219 825.828125 385.574219 825.816406 C 385.574219 825.832031 385.574219 825.84375 385.574219 825.855469 L 385.4375 825.996094 C 377.09375 834.613281 368.660156 839.667969 366.203125 837.386719 C 365.648438 836.871094 365.445312 836.023438 365.550781 834.917969 L 365.578125 834.828125 C 366.019531 830.773438 370.535156 823.347656 377.347656 816 C 386.082031 806.582031 395.257812 800.886719 397.839844 803.277344 C 400.417969 805.671875 395.429688 815.25 386.695312 824.667969 Z M 419.714844 720.386719 C 414.902344 720.902344 409.816406 710.242188 408.355469 696.578125 C 406.898438 682.917969 409.617188 671.425781 414.433594 670.910156 C 419.246094 670.394531 424.332031 681.054688 425.792969 694.71875 C 427.25 708.378906 424.53125 719.871094 419.714844 720.386719 Z M 419.714844 720.386719 " fill-opacity="1" fill-rule="nonzero"/></g></svg>